<?xml version="1.0" encoding="UTF-8"?> <svg xmlns="http://www.w3.org/2000/svg" id="Слой_1" data-name="Слой 1" viewBox="0 0 207.8 207.8"> <defs> <style>.cls-1{fill:#fff;}.cls-2{fill:#7fb335;}</style> </defs> <title>Ресурс 4</title> <g id="Слой_1-2" data-name="Слой 1-2"> <circle class="cls-1" cx="103.9" cy="103.9" r="103.9"></circle> <path class="cls-2" d="M153.8,133.5c-3.3-2-7.2-1.4-10.6.4s-23.1,16.8-23.1,16.8H100.7a2,2,0,0,1-1.9-1.7,1.86,1.86,0,0,1,1.9-1.7h11.9c4.2,0,8.8-2.4,8.8-6.7,0-4.6-4.7-6.7-8.8-6.7H104a20.92,20.92,0,0,1-8.1-1.2,25.62,25.62,0,0,0-10.2-2.2,23,23,0,0,0-15.6,5.7L49.9,154l22.5,20.1,7.5-6.7H118a16.87,16.87,0,0,0,10.3-3.5L154,138.1a2.72,2.72,0,0,0,.6-3.8A3,3,0,0,0,153.8,133.5Z"></path> <path class="cls-2" d="M145,42.2a24.34,24.34,0,0,0-17.2-6.7,27.41,27.41,0,0,0-19.3,8l-2.3,2.3-2.3-2.3a27.24,27.24,0,0,0-19.3-8,24.11,24.11,0,0,0-17.1,6.7,25.75,25.75,0,0,0-1,36.1l.6.6,39.2,39.2,39.3-39.2a25.59,25.59,0,0,0,0-36.2A2.65,2.65,0,0,0,145,42.2Z"></path> </g> </svg> 