<svg xmlns="http://www.w3.org/2000/svg" viewBox="0 0 422.518 422.518" width="512" height="512"><path d="M422.512 215.424c0-.079-.004-.158-.005-.237a9.679 9.679 0 0 0-9.727-9.514h-2.554l-39.443-76.258c-1.664-3.22-4.983-5.225-8.647-5.226l-67.34-.014 2.569-20.364c.733-8.138-1.783-15.822-7.086-21.638-5.293-5.804-12.683-9.001-20.81-9.001h-209c-5.255 0-9.719 4.066-10.22 9.308l-2.095 16.778h119.078c7.732 0 13.836 6.268 13.634 14-.203 7.732-6.635 14-14.367 14H126.78l.021.059H10.163c-5.468 0-10.017 4.432-10.16 9.9a9.594 9.594 0 0 0 9.641 9.9H164.06a14.512 14.512 0 0 1 12.326 14.808c-.216 8.242-7.039 14.925-15.267 14.994H54.661c-5.523 0-10.117 4.477-10.262 10a9.69 9.69 0 0 0 9.738 10h105.204c7.273 1.013 12.735 7.262 12.537 14.84-.217 8.284-7.109 15-15.393 15H35.792v.011H25.651c-5.523 0-10.117 4.477-10.262 10a9.69 9.69 0 0 0 9.738 10h8.752l-3.423 35.818c-.734 8.137 1.782 15.821 7.086 21.637 5.292 5.805 12.683 9.001 20.81 9.001h7.55C69.5 333.8 87.3 349.345 109.073 349.345s40.387-15.545 45.06-36.118h94.219c7.618 0 14.83-2.913 20.486-7.682 5.172 4.964 12.028 7.682 19.514 7.682h1.55c3.597 20.573 21.397 36.118 43.171 36.118 21.773 0 40.387-15.545 45.06-36.118h6.219c16.201 0 30.569-13.171 32.029-29.36l6.094-67.506c.008-.091.004-.181.01-.273.01-.139.029-.275.033-.415.002-.084-.006-.165-.006-.249zM109.597 329.345c-13.785 0-24.707-11.214-24.346-24.999.361-13.786 11.87-25.001 25.655-25.001 13.785 0 24.706 11.215 24.345 25.001-.361 13.785-11.869 24.999-25.654 24.999zm224 0c-13.785 0-24.706-11.214-24.346-24.999.361-13.786 11.87-25.001 25.655-25.001 13.785 0 24.707 11.215 24.345 25.001-.361 13.785-11.869 24.999-25.654 24.999zm62.86-46.757c-.52 5.767-5.823 10.639-11.58 10.639h-6.727c-4.454-19.453-21.744-33.882-42.721-33.882-20.977 0-39.022 14.429-44.494 33.882h-2.059c-2.542 0-4.81-.953-6.389-2.685-1.589-1.742-2.337-4.113-2.106-6.676l12.609-139.691 28.959.006-4.59 50.852c-.735 8.137 1.78 15.821 7.083 21.637 5.292 5.806 12.685 9.004 20.813 9.004h56.338l-5.136 56.914z" fill="#86bc42"/></svg>